<?xml version="1.0"?>
<svg xmlns="http://www.w3.org/2000/svg" xmlns:xlink="http://www.w3.org/1999/xlink" xmlns:svgjs="http://svgjs.com/svgjs" version="1.1" width="512" height="512" x="0" y="0" viewBox="0 0 64 64" style="enable-background:new 0 0 512 512" xml:space="preserve" class=""><g><g xmlns="http://www.w3.org/2000/svg"><g><path d="m45 45h14v10h-14z" fill="#11aab5" data-original="#f0bc5e" style="" class=""/></g><g><g><path d="m8 15c-1.654 0-3-1.346-3-3s1.346-3 3-3 3 1.346 3 3-1.346 3-3 3z" fill="#11aab5" data-original="#f0bc5e" style="" class=""/></g></g><g><g><path d="m16 15c-1.654 0-3-1.346-3-3s1.346-3 3-3 3 1.346 3 3-1.346 3-3 3z" fill="#11aab5" data-original="#f0bc5e" style="" class=""/></g></g><g><g><path d="m24 15c-1.654 0-3-1.346-3-3s1.346-3 3-3 3 1.346 3 3-1.346 3-3 3z" fill="#11aab5" data-original="#f0bc5e" style="" class=""/></g></g><g><g><path d="m59 43h-14v-8h14z" fill="#11aab5" data-original="#f0bc5e" style="" class=""/></g></g><g><path d="m60 5h-56c-1.654 0-3 1.346-3 3v48c0 1.654 1.346 3 3 3h56c1.654 0 3-1.346 3-3v-48c0-1.654-1.346-3-3-3zm-56 2h56c.552 0 1 .449 1 1v9h-58v-9c0-.551.448-1 1-1zm15 12h42v12h-42zm-2 12h-14v-12h14zm-14 25v-23h14v24h-13c-.552 0-1-.449-1-1zm57 1h-41v-24h42v23c0 .551-.448 1-1 1z" fill="#c7c5c5" data-original="#000000" style="" class=""/><path d="m15 29v-8h-10v8zm-8-6h6v4h-6z" fill="#c7c5c5" data-original="#000000" style="" class=""/><path d="m53 21c-2.206 0-4 1.794-4 4s1.794 4 4 4 4-1.794 4-4-1.794-4-4-4zm0 6c-1.103 0-2-.897-2-2s.897-2 2-2 2 .897 2 2-.897 2-2 2z" fill="#c7c5c5" data-original="#000000" style="" class=""/><path d="m41 21c-2.206 0-4 1.794-4 4s1.794 4 4 4 4-1.794 4-4-1.794-4-4-4zm0 6c-1.103 0-2-.897-2-2s.897-2 2-2 2 .897 2 2-.897 2-2 2z" fill="#c7c5c5" data-original="#000000" style="" class=""/><path d="m29 21c-2.206 0-4 1.794-4 4s1.794 4 4 4 4-1.794 4-4-1.794-4-4-4zm0 6c-1.103 0-2-.897-2-2s.897-2 2-2 2 .897 2 2-.897 2-2 2z" fill="#c7c5c5" data-original="#000000" style="" class=""/><path d="m5 37v6h10v-6zm8 4h-6v-2h6z" fill="#c7c5c5" data-original="#000000" style="" class=""/><path d="m5 53h10v-6h-10zm2-4h6v2h-6z" fill="#c7c5c5" data-original="#000000" style="" class=""/><path d="m37 53h-2v-18h-6v18h-2v-14h-6v16h22v-10h-6zm-12 0h-2v-12h2zm6-16h2v16h-2zm8 10h2v6h-2z" fill="#c7c5c5" data-original="#000000" style="" class=""/><path d="m45 45h2v2h-2z" fill="#c7c5c5" data-original="#000000" style="" class=""/><path d="m49 45h10v2h-10z" fill="#c7c5c5" data-original="#000000" style="" class=""/><path d="m45 49h2v2h-2z" fill="#c7c5c5" data-original="#000000" style="" class=""/><path d="m49 49h10v2h-10z" fill="#c7c5c5" data-original="#000000" style="" class=""/><path d="m45 53h2v2h-2z" fill="#c7c5c5" data-original="#000000" style="" class=""/><path d="m49 53h10v2h-10z" fill="#c7c5c5" data-original="#000000" style="" class=""/></g></g></g></svg>
