<svg height="512" viewBox="0 0 128 128" width="512" xmlns="http://www.w3.org/2000/svg"><g id="icon"><path d="m84.611 54.245-21.111 18.155-32.57-1.625 41.509-19.212a4.645 4.645 0 0 1 2.543-.393l9.054 1.159a1.1 1.1 0 0 1 .575 1.916z" fill="#4fa4d1"/><path d="m125.415 47.033h-3.561a3.692 3.692 0 0 0 -2.673 1.147l-17.413 18.312 17.788 1.313 7.229-18.776a1.468 1.468 0 0 0 -1.37-1.996z" fill="#4fa4d1"/><path d="m121.823 65.189h-103.186a24.842 24.842 0 0 0 -11.125 2.636 15.5 15.5 0 0 0 -4.662 3.747s-3.914 1.4-2.565 4.362 13.5 6.7 28.883 6.7h44l49.295-12.276a2.623 2.623 0 0 0 -.634-5.169z" fill="#dbe2eb"/><path d="m124.45 67.81a2.622 2.622 0 0 1 -1.99 2.55l-49.3 12.27h-43.99c-15.39 0-27.54-3.73-28.89-6.69a2.85 2.85 0 0 1 -.28-1.2 2.467 2.467 0 0 1 .26-1.09c3.07 2.76 14.3 5.79 28.16 5.79h43.99l49.3-12.28a2.558 2.558 0 0 0 1.72-1.41 2.581 2.581 0 0 1 1.02 2.06z" fill="#c1cdd3"/><path d="m10.787 70.458a9.1 9.1 0 0 1 -3.275-2.633 15.5 15.5 0 0 0 -4.662 3.747c1.558.961 4.256 1.019 7.66.517a.871.871 0 0 0 .277-1.631z" fill="#4fa4d1"/><path d="m44.315 77.361a20.117 20.117 0 0 0 -8.667.045 1.777 1.777 0 0 0 -1.4 1.764l.063 4.514a1.77 1.77 0 0 0 1.31 1.692 18.16 18.16 0 0 0 8.693.007 1.784 1.784 0 0 0 1.367-1.732v-4.557a1.786 1.786 0 0 0 -1.366-1.733z" fill="#c8cbd2"/><path d="m44.315 78.726a20.132 20.132 0 0 0 -8.667.045 1.778 1.778 0 0 0 -1.4 1.765l.063 4.513a1.771 1.771 0 0 0 1.31 1.693 18.157 18.157 0 0 0 8.693.006 1.784 1.784 0 0 0 1.367-1.732v-4.557a1.786 1.786 0 0 0 -1.366-1.733z" fill="#c8cbd2"/><path d="m45.682 80.46v4.556a1.784 1.784 0 0 1 -1.367 1.731 18.153 18.153 0 0 1 -8.693 0 1.773 1.773 0 0 1 -1.31-1.695l-.016-1.1a1.74 1.74 0 0 0 .666.343 18.154 18.154 0 0 0 8.692.007 1.783 1.783 0 0 0 1.368-1.733v-3.49a1.774 1.774 0 0 1 .66 1.381z" fill="#bac2d3"/><rect fill="#bac2d3" height="8.506" rx=".643" width="5.714" x="19.301" y="68.707"/><path d="m86.4 93.434-21.109-18.158-32.568 1.224 41.508 19.616a4.646 4.646 0 0 0 2.543.393l9.055-1.159a1.1 1.1 0 0 0 .571-1.916z" fill="#4fa4d1"/><path d="m127.825 77.351-9.657-8.306-14.9.745 18.987 8.788a2.125 2.125 0 0 0 1.163.18l4.141-.53a.5.5 0 0 0 .266-.877z" fill="#4fa4d1"/><path d="m39.57 36.92c.012-.143.022-.287.022-.433a5.559 5.559 0 0 0 -8.576-4.676 5.993 5.993 0 0 0 -11.029 4.378 6.187 6.187 0 1 0 6.455 10.126 4.93 4.93 0 0 0 7.664.192 5.742 5.742 0 1 0 5.464-9.587z" fill="#dbe2eb"/><path d="m112.919 92.192c.007-.089.014-.178.014-.268a3.44 3.44 0 0 0 -5.307-2.893 3.707 3.707 0 0 0 -6.826 2.709 3.828 3.828 0 1 0 3.993 6.265 3.051 3.051 0 0 0 4.742.119 3.553 3.553 0 1 0 3.381-5.932z" fill="#dbe2eb"/><g fill="#6bb3d9"><path d="m43.579 69.677v2.074a1.237 1.237 0 0 1 -1.236 1.228h-1.783a1.238 1.238 0 0 1 -1.237-1.228v-2.074a1.233 1.233 0 0 1 1.237-1.228h1.783a1.232 1.232 0 0 1 1.236 1.228z"/><rect height="4.53" rx="1.228" width="4.248" x="47.583" y="68.449"/><rect height="4.53" rx="1.228" width="4.248" x="55.838" y="68.449"/><path d="m76.6 69.677v2.074a1.238 1.238 0 0 1 -1.236 1.228h-1.784a1.238 1.238 0 0 1 -1.236-1.228v-2.074a1.233 1.233 0 0 1 1.236-1.228h1.784a1.233 1.233 0 0 1 1.236 1.228z"/><path d="m68.341 69.677v2.074a1.231 1.231 0 0 1 -1.228 1.228h-1.784a1.237 1.237 0 0 1 -1.236-1.228v-2.074a1.232 1.232 0 0 1 1.236-1.228h1.784a1.226 1.226 0 0 1 1.228 1.228z"/><rect height="4.53" rx="1.228" width="4.248" x="31.072" y="68.449"/><rect height="4.53" rx="1.228" width="4.248" x="80.603" y="68.449"/></g></g></svg>